<svg width="22" height="22" viewBox="0 0 22 22" fill="none" xmlns="http://www.w3.org/2000/svg">
<path fill-rule="evenodd" clip-rule="evenodd" d="M6.80994 19.0989C8.07869 19.8501 9.52565 20.2476 11.0001 20.25H11.8526C12.9705 20.1359 14.0515 19.786 15.0243 19.2233C16.4441 18.4413 17.6021 17.2583 18.3537 15.822C19.1053 14.3857 19.417 12.7599 19.2501 11.1475C19.241 11.053 19.2135 10.9612 19.169 10.8774C19.1245 10.7936 19.0639 10.7192 18.9907 10.6588C18.9175 10.5984 18.8331 10.5529 18.7424 10.5252C18.6516 10.4973 18.5563 10.4877 18.4618 10.4967C18.3673 10.5057 18.2755 10.5332 18.1916 10.5778C18.1078 10.6222 18.0335 10.6828 17.9731 10.7561C17.9126 10.8292 17.8672 10.9137 17.8394 11.0044C17.8116 11.0952 17.8019 11.1905 17.8109 11.285C17.9089 12.1846 17.8264 13.0947 17.5683 13.9619C17.3102 14.8292 16.8815 15.6363 16.3076 16.3358C15.7501 17.0226 15.0654 17.5952 14.2909 18.0225C13.487 18.4673 12.6015 18.7447 11.6876 18.8383C10.788 18.9363 9.87793 18.8538 9.01067 18.5957C8.14338 18.3376 7.33633 17.909 6.63677 17.335C5.95005 16.7776 5.37736 16.0928 4.9501 15.3183C4.50536 14.5145 4.22785 13.6289 4.13427 12.715C4.03627 11.8155 4.11876 10.9054 4.37689 10.0381C4.63503 9.1708 5.06364 8.36375 5.6376 7.66419C6.19506 6.97747 6.8798 6.40478 7.65427 5.97752C8.45814 5.53277 9.34369 5.25527 10.2576 5.16169C11.1823 5.06335 12.1172 5.15062 13.0076 5.41836C13.0962 5.4545 13.1916 5.47171 13.2873 5.46889C13.383 5.46608 13.4771 5.44329 13.5636 5.40198C13.6499 5.36069 13.7267 5.30178 13.7891 5.22905C13.8514 5.15634 13.8979 5.07139 13.9255 4.97967C13.9531 4.88794 13.9611 4.79147 13.9493 4.69644C13.9374 4.6014 13.9058 4.50989 13.8564 4.42779C13.8071 4.34567 13.7412 4.27477 13.6629 4.21962C13.5847 4.16447 13.4956 4.12629 13.4018 4.10752C12.3493 3.78414 11.2422 3.6781 10.1476 3.79586C9.04884 3.90216 7.98428 4.2362 7.02177 4.77669C5.6036 5.56004 4.44747 6.74363 3.6976 8.17978C2.94774 9.61594 2.63733 11.2411 2.8051 12.8525C2.91141 13.9513 3.24545 15.0158 3.78593 15.9783C4.49696 17.2701 5.54118 18.3476 6.80994 19.0989ZM9.16673 14.75C9.28372 14.8834 9.44817 14.9657 9.62508 14.9792C9.80191 14.9657 9.96645 14.8834 10.0834 14.75L18.3334 6.50002C18.3946 6.37174 18.4146 6.22761 18.3906 6.08748C18.3666 5.94736 18.2997 5.81813 18.1991 5.7176C18.0987 5.61707 17.9694 5.55018 17.8292 5.52614C17.6892 5.50209 17.545 5.52209 17.4167 5.58336L9.59758 13.3475L7.3334 11.0833C7.20511 11.0221 7.06097 11.0021 6.92085 11.0261C6.78073 11.0501 6.65151 11.1171 6.55098 11.2176C6.45045 11.3182 6.38356 11.4473 6.35951 11.5875C6.33547 11.7276 6.35546 11.8717 6.41673 12L9.16673 14.75Z" fill="#7EE829"/>
</svg>
